Coordinates
version=1
nRows=13
nColumns=40
inDegrees=yes

Units are S.I. units (second, meters, Newtons, ...)
Angles are in degrees.

endheader
time	pelvis_tilt	pelvis_list	pelvis_rotation	pelvis_tx	pelvis_ty	pelvis_tz	hip_flexion_r	hip_adduction_r	hip_rotation_r	knee_angle_r	knee_angle_r_beta	ankle_angle_r	subtalar_angle_r	mtp_angle_r	hip_flexion_l	hip_adduction_l	hip_rotation_l	knee_angle_l	knee_angle_l_beta	ankle_angle_l	subtalar_angle_l	mtp_angle_l	lumbar_extension	lumbar_bending	lumbar_rotation	arm_flex_r	arm_add_r	arm_rot_r	elbow_flex_r	pro_sup_r	wrist_flex_r	wrist_dev_r	arm_flex_l	arm_add_l	arm_rot_l	elbow_flex_l	pro_sup_l	wrist_flex_l	wrist_dev_l
     49.72342857	     -5.20565315	     -5.31866676	     -3.93623537	      0.93962041	      0.93367642	      0.41290782	     35.53475405	     -3.01569591	     -5.35692272	     61.06262682	     61.06262682	     -2.93260858	    -14.47667614	     -0.66277274	     12.20348951	     -5.69232895	     -8.84813739	     20.43043823	     20.43043823	     15.06121505	    -12.07102643	      2.06648514	    -11.31256858	      6.17361310	      0.84977165	     -5.35047094	    -14.00731312	     -3.78313747	     28.07307131	     46.72079251	      0.00000000	      0.00000000	     17.37149401	    -19.10664086	     -9.35053578	     68.79380837	     47.18808913	      0.00000000	      0.00000000
     49.73685714	     -5.23245433	     -5.34230248	     -4.33867326	      0.93868281	      0.93417322	      0.41341769	     35.72092394	     -2.70854353	     -5.53641738	     58.02303600	     58.02303600	     -2.51859605	    -13.73971325	     -0.98999184	     11.31857422	     -5.70294477	     -9.30297491	     19.62574329	     19.62574329	     15.14825565	    -11.82413169	      1.93393849	    -11.43214812	      6.13950488	      1.09551914	     -6.93180421	    -14.10190215	     -3.97647908	     27.43270767	     46.73843048	      0.00000000	      0.00000000	     18.33752851	    -19.35202764	     -9.95744175	     70.49359275	     47.27452966	      0.00000000	      0.00000000
     49.75028571	     -5.57679149	     -5.42735127	     -4.63696227	      0.93748579	      0.93409029	      0.41405838	     36.04031205	     -2.34156097	     -5.88320730	     54.51295847	     54.51295847	     -2.02036576	    -12.94624034	     -0.91659745	     10.96480731	     -5.81174095	     -9.54506427	     19.10642280	     19.10642280	     15.27630009	    -11.68139134	      1.87108260	    -11.15972946	      6.25462863	      0.78926062	     -8.21200924	    -14.17452108	     -4.06639230	     27.05225317	     46.74664762	      0.00000000	      0.00000000	     19.08381769	    -20.07277916	    -10.35419381	     71.18378060	     47.31975510	      0.00000000	      0.00000000
     49.76371429	     -5.73522991	     -5.54023264	     -4.91178266	      0.93649964	      0.93418747	      0.41474786	     35.89102660	     -1.95249503	     -6.30012436	     50.52460456	     50.52460456	     -1.52549567	    -11.92828782	     -0.93855761	     10.31948912	     -5.93302145	     -9.84769347	     18.44914030	     18.44914030	     15.38147522	    -11.42247348	      1.74947162	    -11.11601532	      6.39608595	      0.69228214	     -9.48232458	    -14.27703887	     -4.21018881	     26.75406406	     46.75467414	      0.00000000	      0.00000000	     19.79836804	    -20.45435150	    -10.74916598	     72.26110026	     47.37187371	      0.00000000	      0.00000000
     49.77714286	     -5.92225655	     -5.56837078	     -5.16363692	      0.93548094	      0.93400797	      0.41558126	     35.59104216	     -1.60214725	     -6.69153395	     46.19172458	     46.19172458	     -1.04650765	    -10.75232834	     -0.96884879	      9.76284489	     -5.98250342	    -10.18781866	     17.87627541	     17.87627541	     15.49337372	    -11.15081252	      1.52943781	    -11.07643796	      6.40398021	      0.58462444	    -10.70147953	    -14.33563064	     -4.39649370	     26.59964166	     46.75988295	      0.00000000	      0.00000000	     20.47540713	    -20.83001549	    -11.15479943	     73.38461153	     47.42539237	      0.00000000	      0.00000000
     49.79057143	     -5.99962184	     -5.56393626	     -5.42120105	      0.93471291	      0.93371490	      0.41652903	     34.81972094	     -1.26244667	     -7.16013255	     41.26457243	     41.26457243	     -1.59448840	     -9.76537805	     -3.84822214	      9.01849891	     -6.01372011	    -10.71625790	     17.18193017	     17.18193017	     15.09982889	    -10.80794774	     -0.15759714	    -11.18832808	      6.35852599	      0.27636390	    -12.21402546	    -14.26669503	     -6.17427627	     28.13646242	     46.76848428	      0.00000000	      0.00000000	     20.42003859	    -21.16793755	    -12.48261655	     76.05838975	     47.61081821	      0.00000000	      0.00000000
     49.80400000	     -6.26539400	     -5.53877010	     -5.59628066	      0.93386499	      0.93301498	      0.41758374	     34.17259746	     -0.87995607	     -7.60919457	     36.37075045	     36.37075045	     -1.15812452	     -8.18202940	     -3.35486190	      8.64490599	     -6.02031640	    -10.91240839	     16.78740003	     16.78740003	     15.29022756	    -10.64603909	     -0.31520645	    -10.99167574	      6.31349780	      0.11077658	    -13.15189917	    -14.24237325	     -6.27867632	     27.89749291	     46.77318373	      0.00000000	      0.00000000	     21.10702994	    -21.56631326	    -12.64193109	     76.57754762	     47.64001742	      0.00000000	      0.00000000
     49.81742857	     -6.36285234	     -5.48205056	     -5.71516279	      0.93334903	      0.93231396	      0.41863507	     33.13759065	     -0.56341950	     -8.20444212	     31.38196206	     31.38196206	     -0.72499777	     -6.10882095	     -2.70300987	      8.07609742	     -5.99011980	    -11.19382328	     16.40329853	     16.40329853	     15.51269465	    -10.29571120	     -0.63245322	    -10.96320064	      6.24508951	     -0.00828039	    -14.09343971	    -14.21890997	     -6.47453200	     27.87319214	     46.77393095	      0.00000000	      0.00000000	     21.71562811	    -21.86312278	    -12.77577228	     77.20835839	     47.67021826	      0.00000000	      0.00000000
     49.83085714	     -6.46583246	     -5.35102057	     -5.80200629	      0.93303655	      0.93131827	      0.41984794	     32.03058767	     -0.27334907	     -8.77393187	     26.55534440	     26.55534440	     -0.33664568	     -3.88113164	     -1.70308064	      7.53588170	     -5.89870869	    -11.50294856	     16.07072709	     16.07072709	     15.76048904	     -9.89432010	     -1.05630951	    -10.89574327	      6.08408253	     -0.15495740	    -14.96033029	    -14.11993163	     -6.71397933	     28.03174532	     46.77013742	      0.00000000	      0.00000000	     22.24171665	    -22.14835042	    -12.87539644	     77.77533171	     47.69686775	      0.00000000	      0.00000000
     49.84428571	     -6.49367543	     -5.17279181	     -5.85049867	      0.93300193	      0.93009993	      0.42108089	     31.02304116	     -0.15107559	     -9.66228744	     22.58934409	     22.58934409	      1.16135662	     -0.78141918	      2.46540253	      6.92271412	     -5.80338172	    -12.07691643	     15.76945842	     15.76945842	     15.79723855	     -9.15123848	     -2.54666367	    -10.91198436	      5.86683680	     -0.04425324	    -16.39242222	    -13.80977710	     -8.27073854	     29.98567796	     46.73702135	      0.00000000	      0.00000000	     22.91579196	    -22.28296902	    -12.71131321	     78.35898460	     47.74669968	      0.00000000	      0.00000000
     49.85771429	     -6.55265608	     -4.95512263	     -5.88256490	      0.93325353	      0.92877057	      0.42248563	     29.90876676	      0.08913840	    -10.14699015	     18.71816331	     18.71816331	      1.32902317	      1.18346925	      3.75563633	      6.32962122	     -5.59151888	    -12.21984101	     15.46284055	     15.46284055	     16.09103320	     -8.97936201	     -2.77725871	    -10.77337884	      5.62461483	     -0.18697288	    -16.94918034	    -13.65415507	     -8.40437724	     29.90733202	     46.73695903	      0.00000000	      0.00000000	     23.27071747	    -22.45728524	    -12.67692295	     78.48258605	     47.75734350	      0.00000000	      0.00000000
     49.87114286	     -6.57855626	     -4.72160468	     -5.89885226	      0.93367832	      0.92736579	      0.42392537	     29.13014319	      0.14214158	    -11.00426190	     16.18223932	     16.18223932	      2.88927365	      3.69288280	      8.79041797	      5.69048712	     -5.39598927	    -12.55201648	     15.15766790	     15.15766790	     16.29130319	     -8.51515644	     -3.55749299	    -10.65655127	      5.38375476	      0.01009220	    -17.74252809	    -13.30367552	     -9.42622146	     30.60928466	     46.70879368	      0.00000000	      0.00000000	     23.96575760	    -22.41576235	    -12.15731488	     78.12910786	     47.77480054	      0.00000000	      0.00000000
     49.88457143	     -6.59896391	     -4.50751763	     -5.87613566	      0.93439199	      0.92589712	      0.42552573	     28.27739745	      0.29864970	    -11.47839234	     13.93810007	     13.93810007	      2.81480922	      4.98710980	      9.43637090	      5.04451612	     -5.19634179	    -12.65274901	     14.88254517	     14.88254517	     16.66764569	     -8.28238409	     -3.75388959	    -10.48912670	      5.15418086	     -0.15527058	    -17.92481622	    -13.11470617	     -9.47685652	     30.61429419	     46.70254257	      0.00000000	      0.00000000	     24.11682223	    -22.44386328	    -12.11749693	     78.09550296	     47.77918959	      0.00000000	      0.00000000
